<?xml version="1.0" encoding="UTF-8"?>
<svg width="800px" height="800px" viewBox="0 0 64 64" xmlns="http://www.w3.org/2000/svg">
    <path d="m27.6 6.26c7.77-1 16.37 1.38 23.75 7.44s8.19 11.94 7.25 21.5-4.6 15.25-12.19 19.56-21.87 5.32-30.41-3.62-10-12.56-10.84-20.63 6.13-22.06 22.44-24.25z"
          fill="#1d1d1b"/>
    <path d="m28.88 7.86c5.64-.93 12.69 1.25 17.66 4.4s7.93 7 9.18 10.41 1.41 5.88 1 10.5a31 31 0 0 1 -3.43 12.47 21.23 21.23 0 0 1 -5.6 6.36 14 14 0 0 1 -2.56 1.5s-3.34-3.75-3.5-3.78-.69.25-.56.41 3.37 3.69 3.25 3.81a11.59 11.59 0 0 1 -1.72.47s-3-3.16-3.1-3.16-.62.19-.56.38 2.85 2.87 2.66 3-8.47 2-14.13.34-9.14-5-13.35-9.1-7.5-11.5-6.92-17.87 4.67-12.8 9.21-15.59a30.44 30.44 0 0 1 12.47-4.55z"
          fill="#e7413e"/>
    <path d="m34.87 12.49c.82-.31 4.12-1 5.17-.08s1.45 2.88.08 3.58-5.46 1.25-6.17.75-1.62-1.54-1.37-1.95a5.37 5.37 0 0 1 2.29-2.3z"
          fill="#1d1d1b"/>
    <path d="m37.58 12.91c1.34 0 2.08.38 2.16.83s-.5 1.13-1.33 1.42a8.21 8.21 0 0 1 -3.5.29 3 3 0 0 1 -.71-1 5.53 5.53 0 0 1 3.38-1.54z"
          fill="#a42116"/>
    <path d="m41.16 21.16c.43.06.25 1 1 1.5s1.21 1 1 1.46a5.84 5.84 0 0 1 -3.16 2.54c-1.8.54-2.8.29-3.25-.71s.41-2.5 1.66-3.46 1.79-1.49 2.75-1.33z"
          fill="#1d1d1b"/>
    <path d="m40.29 22.58c.35-.08.12.58.79 1s1 .25.62.71a5.07 5.07 0 0 1 -2.46 1.41c-.66 0-1.2-.16-.87-.87s1.33-2.13 1.92-2.25z"
          fill="#a42116"/>
    <path d="m44.08 31c.52-.29 1.71.12 2.25-.34s.41-1.25 1.08-1.41 1.33.5 2.33.66 1.71 0 1.88.67-.29 2.25-.13 2.92.38 1.66.38 1.66-1.33 2-1.92 2-1-.25-1.25.17.21 1.33-.62 1.33a6.75 6.75 0 0 1 -2.5-.46 8.35 8.35 0 0 0 -1.58-.41c-.71-.17-2-1.17-1.8-1.67s1.8-1.42 1.54-2.12-.66-2.42.34-3z"
          fill="#1d1d1b"/>
    <path d="m45.66 32.45c.5-.21 1.33.5 1.83.13s.55-1.38 1.13-1.34 1.29 0 1.12.34-1 1-.66 1.75.83 1.62.62 1.91-1-.33-1.66.38-.55 1.33-1 1.29-2.7-.71-2.5-1 1-.71 1.09-1.46-.26-1.87.03-2z"
          fill="#f2910d"/>
    <path d="m40.79 39.83a2.14 2.14 0 0 1 2.12-.29c.54.41.58.87 1.46.91s1.71-.62 1.79-.5.54.5.13.79-1.17.92-1.75.8-1.21-.84-1.84-.88-.75.42-1.46.38-.54-1.04-.45-1.21z"
          fill="#1d1d1b"/>
    <path d="m46.83 44.62a1.82 1.82 0 0 1 2.66 1.54c.3 1.63-.91 2.54-2.75 2s-1.95-2.71.09-3.54z" fill="#1d1d1b"/>
    <path d="m47.37 45.54a.88.88 0 0 1 1.12 1.08c-.2.75-1.29.42-1.62.25s-.33-1.04.5-1.33z" fill="#a42116"/>
    <path d="m48.62 39.74c.53-.17 4 3.25 3.83 3.59s0 .71-.5.5-3.95-2.83-3.95-3.21a1.2 1.2 0 0 1 .62-.88z"
          fill="#1d1d1b"/>
    <path d="m50.54 38.29c.08-.26.45-.67.7-.46s2.8 2.71 2.63 3-.21.66-.58.41a23.92 23.92 0 0 1 -2.75-2.95z"
          fill="#1d1d1b"/>
    <path d="m52.58 36.29s.08-.67.37-.63 2 1.29 1.92 1.75.08.67-.21.67-1.92-1.71-2.08-1.79z" fill="#1d1d1b"/>
    <path d="m53.79 33.37c-.18 0 .12-.75.25-.75s1.29 1.12 1.29 1.67.21.7-.09.62-1.24-1.54-1.45-1.54z" fill="#1d1d1b"/>
    <path d="m50.83 22.58c1.07-.42 2.21-.46 2.75.87a2 2 0 0 1 -2 2.84c-1.54-.13-2.25-1.09-2.13-2a1.77 1.77 0 0 1 1.38-1.71z"
          fill="#1d1d1b"/>
    <path d="m51.22 23.45c.53-.21 1.1-.23 1.36.43a1 1 0 0 1 -1 1.41c-.76-.06-1.12-.54-1-1a.86.86 0 0 1 .64-.84z"
          fill="#f2910d"/>
    <path d="m20.87 12.16c.26-.09.75-.75 1.54-.58s.63.62 2.21.58 1.83-.5 2.17-.33.54.16.29.41a1.41 1.41 0 0 1 -.75.5 3.11 3.11 0 0 1 -2.5.3c-1.25-.46-1.21-.88-1.75-.63s-.46.46-.75.42-.59-.63-.46-.67z"
          fill="#1d1d1b"/>
    <path d="m25.49 16.49c2-.53 3.13-.2 3.8.34s.75 1 1.54 1.54a2.4 2.4 0 0 1 .37 3.63 7.52 7.52 0 0 1 -7.46 1c-2.87-1.25-2.2-3.59-1.41-4.42a7.74 7.74 0 0 1 3.16-2.09z"
          fill="#1d1d1b"/>
    <path d="m25.62 17.62c.5-.21 1.17.87 2.12.92s.71-.59 1.5.37 1.17 1.38.88 1.92a4.85 4.85 0 0 1 -5 1c-2.17-1-2-1.71-1.58-2.38a5.46 5.46 0 0 1 2.08-1.83z"
          fill="#f2910d"/>
    <path d="m16 25.33c.77-.43 3.09-1 3.55-.38s-.05 1.79-.71 2.34-1.29 1.5-2.54 1.16-1.59-.46-1.67-1a2.2 2.2 0 0 1 1.37-2.12z"
          fill="#1d1d1b"/>
    <path d="m16.66 26a3.34 3.34 0 0 1 1.92-.33c.37.17.41.46-.17.92s-1.25 1.33-1.92 1.2-1.66-1 .17-1.79z"
          fill="#a42116"/>
    <path d="m26.54 30.66a1.76 1.76 0 0 1 2.33 2.34c-.71 2-3.79 2.92-4.83 2s-1.04-2.55 2.5-4.34z" fill="#1d1d1b"/>
    <path d="m26.45 31.54c.48-.24 1.79.08 1.46 1.12s-2.17 2-2.83 1.79-1.34-1.58 1.37-2.91z" fill="#f2910d"/>
    <path d="m37 33.08c.6-.26 2.66 0 2.62 1.33s-1.62 1.92-2.62 1.5-2.13-1.91 0-2.83z" fill="#1d1d1b"/>
    <path d="m37.42 33.91c.26-.11 1.13 0 1.12.56a.84.84 0 0 1 -1.15.64c-.46-.18-.89-.82.03-1.2z" fill="#a42116"/>
    <path d="m20.87 47.87c.22-.21 1 1 2 1a1.87 1.87 0 0 0 1.46-1.17c.16-.33.16-.58.45-.62s.5 0 .38.37-.33 1.54-1 2a2.88 2.88 0 0 1 -2.84 0c-.95-.62-1.08-1-.45-1.58z"
          fill="#1d1d1b"/>
    <path d="m25.08 45.33c0-.27.29-.21 1.08-.21s1.21.21 1.17 0a4.71 4.71 0 0 0 -1.09-2c-.58-.42-1-.54-.87-.83s.33-.63.58-.67 2.88.25 2.75 0-.7-1.33-.37-1.62 1.25-.83 1.54-.66.75.66 1 .5.46-.25.46-.46-.46-1.25.08-1.54 1.79-.46 1.92 0 .41 2.37.62 2.29a4.72 4.72 0 0 1 1.25-.42 4.13 4.13 0 0 0 1.42.42c.79 0 1.92.37 1.92.71s-.17.87.12 1.12 1.83.29 2.54 1.42a3.51 3.51 0 0 1 .54 3.5c-.54 1.33-1 1.83-1.66 1.79a6.35 6.35 0 0 0 -1.59-.13c-.83.09-.75.13-1.16-.2s0-.75-1.21-.38-.63.71-1.75.42-1.54-.63-2-.46-2.87 2-3.33 1.5a3 3 0 0 1 -.63-.88s-.08-1.87-.5-2a13.31 13.31 0 0 0 -1.83-.2 1.61 1.61 0 0 1 -1-1.01z"
          fill="#1d1d1b"/>
    <path d="m28.83 43.7c0-.33 1-.41 1.08-.66s.29-1 .46-1a9.48 9.48 0 0 0 1.5-.75c.29-.25.42-.62.71-.5s.5 1.13 1.12.84a2.43 2.43 0 0 1 1.3-.43c.79-.08 2.13.25 2 .42s-.45 1.37-.16 1.58 2.87 1 3.12 1.38a2.8 2.8 0 0 1 -.12 1.83 2.19 2.19 0 0 1 -.63.71s-1.84-1.12-2.34-.92a15.56 15.56 0 0 1 -1.54.59l-1.75-.13a3.23 3.23 0 0 0 -1.46.25c-.38.17-1.29 1-1.67.71a1.7 1.7 0 0 1 -.75-1.29c.04-.5-.87-2.33-.87-2.63z"
          fill="#a42116"/>
    <g fill="#1d1d1b">
        <path d="m30.45 43.91s.59-.46.71-.21 1.92 2.09 1.54 2.3a2.31 2.31 0 0 1 -1 .29s-1.16-2.09-1.25-2.38z"/>
        <path d="m32.45 43.45s.21-.37.46-.37 2.88 2.21 2.58 2.37a1.88 1.88 0 0 1 -1.08.21 28.49 28.49 0 0 1 -1.96-2.21z"/>
        <path d="m30.33 53.2a2.41 2.41 0 0 1 1.83-.41c.46.25.71.62 1.13.41s.7-.71 1.16-.5.34.34.79.42a12 12 0 0 0 2.38 0c.29-.08.29.67.17.75a3.4 3.4 0 0 1 -1.3.21 8.57 8.57 0 0 1 -2.08-.42c-.37-.12-.87.79-1.67.54s-.45-.58-.91-.41-.71.5-1.17.25a.75.75 0 0 1 -.33-.84z"/>
        <path d="m43.58 49.29c-.23-.35.58-.67 1-.42s2.16 2.29 2 2.5-.2.58-.66.37a14.5 14.5 0 0 1 -2.34-2.45z"/>
        <path d="m26.37 25.91c.39-.23 1.08.54 2.17.42s1.12-.71 1.95-.5 1.5.54 1.42.75 0 .37-.29.37-1.25-.37-1.75-.16-.46.41-1.42.37-1.25-.5-1.75-.33-.66.41-.91 0 .08-.63.58-.92z"/>
        <path d="m47.54 17.37a1 1 0 0 1 1.46.63c.13.62-.87 1.2-1.54.87s-.38-1.25.08-1.5z"/>
        <path d="m18.79 16.79a1 1 0 0 1 1.45.66c.13.63-.87 1.21-1.54.88s-.37-1.33.09-1.54z"/>
        <path d="m19.54 37.45a1 1 0 0 1 1.45.67c.13.62-.87 1.21-1.54.87s-.37-1.29.09-1.54z"/>
        <path d="m18.62 44.58a1 1 0 0 1 1.46.66c.12.63-.88 1.21-1.54.88s-.38-1.29.08-1.54z"/>
        <path d="m10.12 30.7c.07-.42 1.71.13 2.29 0s.88-.37 1 .05.42.7.17.83a6.25 6.25 0 0 1 -1.67.17 6.27 6.27 0 0 0 -1.29 0c-.54.16-.54-.75-.5-1.05z"/>
        <path d="m12.12 36.29c.24-.24 2.12-.21 2.33.25s.46.87-.16.91-2.42.13-2.46-.08a1.75 1.75 0 0 1 .29-1.08z"/>
    </g>
</svg>